# xmcd CD database file
#
# Track frame offsets:
#	150
#	20750
#	37520
#	52365
#	72275
#	89297
#	109452
#	129187
#	157682
#
# Disc length: 2471 seconds
#
# Revision: 0
# Processed by: cddbd v1.5.2PL0 Copyright (c) Steve Scherf et al.
# Submitted via: CDex 1.70beta2
#
DISCID=6e09a509
DTITLE=Erroll Garner - The Most Happy Piano
DYEAR=1956
DGENRE=Jazz
TTITLE0=Unknown Artist - 01 Girl of My Dreams
TTITLE1=Unknown Artist - 02 But Not for Me
TTITLE2=Unknown Artist - 03 Passing Through
TTITLE3=Unknown Artist - 04 Time on My Hands
TTITLE4=Unknown Artist - 05 Alexander's Ragtime Band
TTITLE5=Unknown Artist - 06 Full Moon and Empty Arms
TTITLE6=Unknown Artist - 07 Mambo 207
TTITLE7=Unknown Artist - 08 The Way Back Blues
TTITLE8=Unknown Artist - 09 Ol' Man River
EXTD=YEAR: 1956
EXTT0=
EXTT1=
EXTT2=
EXTT3=
EXTT4=
EXTT5=
EXTT6=
EXTT7=
EXTT8=
PLAYORDER=
